PathFileType	4	(X/Y/Z)	\\move.snu.ac.kr\motion\Animal\091204_091205_Bird\091205_bird\Project 2\Capture day 2\Session 1\pigeon_016_14markers.trc
DataRate	CameraRate	NumFrames	NumMarkers	Units	OrigDataRate	OrigDataStartFrame	OrigNumFrames
240.0	240.0	15	14	mm	240.0	186	2171
Frame#	Time	20MarkersBird:Head			20MarkersBird:C_back			20MarkersBird:L-back			20MarkersBird:R-back			20MarkersBird:Spine			20MarkersBird:L-shoulder			20MarkersBird:L-elbow			20MarkersBird:L-wrist			20MarkersBird:L-hand			20MarkersBird:L-wing1			20MarkersBird:L-wing10			20MarkersBird:R-shoulder			20MarkersBird:R-elbow			20MarkersBird:R-Wrist			20MarkersBird:R-hand			20MarkersBird:R-wing1			20MarkersBird:R-wing10			20MarkersBird:C_Tail			20MarkersBird:L-Tale			20MarkersBird:R-Tale			
		X1	Y1	Z1	X2	Y2	Z2	X3	Y3	Z3	X4	Y4	Z4	X5	Y5	Z5	X6	Y6	Z6	X7	Y7	Z7	X8	Y8	Z8	X9	Y9	Z9	X10	Y10	Z10	X11	Y11	Z11	X12	Y12	Z12	X13	Y13	Z13	X14	Y14	Z14	X15	Y15	Z15	X16	Y16	Z16	X17	Y17	Z17	X18	Y18	Z18	X19	Y19	Z19	X20	Y20	Z20	

1246	5.188	-1261.88379	1270.06531	-317.58759	-1284.64929	1268.81543	-262.72989							-1301.61389	1260.10864	-210.94550	-1293.08301	1266.58960	-295.24323	-1327.55420	1264.16687	-295.99744	-1355.04346	1272.45959	-318.16605	-1380.65295	1286.83606	-327.58789							-1250.76282	1256.53223	-283.61832	-1233.25708	1266.96533	-260.52731	-1193.29016	1250.58032	-273.85184	-1153.02332	1251.36658	-268.50494							-1357.00549	1196.26453	-119.38718	-1404.04260	1238.36792	-213.01459	-1230.56909	1201.98572	-141.74965	
1247	5.192	-1258.62305	1267.04138	-330.81827	-1281.14844	1266.40247	-275.87772							-1297.41492	1259.70703	-223.88205	-1289.67664	1263.30261	-308.77017	-1323.59607	1257.59497	-310.62256	-1346.74231	1253.79126	-337.91214	-1372.92908	1260.39380	-352.65442							-1247.26868	1253.97229	-297.49646	-1227.60803	1257.13684	-277.39249	-1194.43420	1233.35583	-296.43088	-1154.82275	1223.88525	-296.67526							-1351.41846	1191.87329	-133.35675	-1399.99829	1233.58069	-222.75125	-1226.89465	1201.60144	-153.91309	
1248	5.196	-1255.19678	1263.83850	-344.29437	-1277.46399	1264.31189	-289.03555							-1293.32031	1259.70117	-236.92374	-1286.29456	1260.29614	-322.34085	-1319.54602	1250.75891	-324.10974	-1334.60083	1237.83154	-355.56479	-1357.92566	1234.78577	-374.37039							-1243.82715	1251.88574	-311.41788	-1223.99121	1247.42358	-295.08850	-1199.27661	1220.10718	-319.02078	-1164.08545	1200.82874	-324.92535							-1345.11401	1188.26611	-147.03822	-1395.63074	1228.66858	-232.83438	-1222.64502	1202.65112	-165.86279	
1249	5.200	-1251.95605	1260.87122	-358.22260	-1273.47791	1262.71399	-302.54190							-1288.72058	1258.31641	-250.89462	-1283.00854	1257.65137	-336.47607	-1314.30688	1245.59705	-337.77966	-1320.34778	1225.67322	-370.32452	-1337.07471	1212.72400	-390.68417							-1240.56616	1249.24878	-325.06155	-1222.00452	1239.99805	-311.31573	-1206.85571	1210.47021	-339.02838	-1178.16785	1183.99146	-350.95303							-1337.76477	1185.26501	-160.02676	-1390.49634	1224.22278	-242.48961	-1217.97412	1203.39392	-178.31763	
1250	5.204	-1248.51172	1257.01758	-372.05469	-1269.38843	1261.08716	-316.12595							-1284.42896	1256.72241	-264.66736	-1279.42310	1255.18091	-350.78165	-1310.94690	1243.14563	-345.40219	-1306.59204	1219.27771	-383.26062	-1313.99841	1198.83777	-401.77008							-1236.82471	1246.72388	-339.29657	-1220.18555	1234.67566	-325.36789	-1213.24158	1206.55725	-356.52490	-1194.24036	1175.50879	-373.74503							-1330.45081	1182.99585	-172.59271	-1385.36804	1219.82288	-252.95648	-1212.97693	1203.16272	-191.46178	
1251	5.208	-1244.96069	1253.10083	-386.29233	-1265.26440	1259.44116	-330.28409							-1280.32971	1254.79541	-278.49088	-1275.76111	1252.67566	-365.32224	-1306.18872	1239.06580	-358.07587	-1295.71033	1218.39954	-395.34225	-1294.06409	1194.19080	-409.11224							-1233.02136	1244.40051	-353.64316	-1217.87756	1231.13147	-337.75565	-1215.62878	1207.92920	-371.95996	-1206.84436	1175.41309	-393.62872							-1323.52295	1181.47192	-184.87695	-1380.35425	1215.07788	-264.35458	-1208.15344	1201.24731	-205.43620	
1252	5.213	-1241.19092	1248.82153	-400.99030	-1261.04834	1257.29407	-345.20023							-1275.88293	1251.57886	-292.98196	-1271.93188	1250.19482	-379.77338	-1302.82056	1235.93127	-368.44888	-1289.53113	1221.60205	-407.38986	-1280.55664	1198.79639	-420.01334							-1228.87183	1242.24475	-367.92529	-1214.29504	1229.25793	-349.06677	-1213.21521	1212.20996	-385.28992	-1211.81372	1181.03223	-410.00598							-1316.75598	1179.43286	-197.91235	-1375.46643	1210.50757	-276.53256	-1203.56726	1197.83008	-220.10394	
1253	5.217	-1237.85168	1245.86182	-415.45544	-1256.72144	1254.70984	-360.02594							-1271.33276	1248.36597	-307.91626	-1267.92761	1247.31543	-394.33154	-1300.45996	1235.45007	-378.66458	-1286.75781	1226.45190	-419.19479	-1275.64355	1206.91626	-434.23145							-1224.91028	1239.72449	-382.36307	-1210.34216	1229.26526	-359.02673	-1207.42200	1217.37866	-396.94193	-1207.88525	1186.91211	-422.48132							-1310.63757	1177.90637	-211.33215	-1370.15637	1205.92078	-289.78516	-1199.54126	1193.53333	-235.00952	
1254	5.221	-1233.92969	1241.52271	-430.51144	-1252.25928	1251.51416	-375.35580							-1267.07239	1245.88782	-322.66077	-1263.71875	1244.01379	-409.06216	-1297.33276	1236.83630	-387.64224	-1286.92896	1231.87170	-431.17139	-1277.08472	1211.86658	-447.27414							-1220.82983	1236.63660	-396.87677	-1206.21130	1230.98608	-368.01797	-1199.41309	1222.25232	-406.96426	-1199.72144	1189.97327	-431.23981							-1305.08411	1175.82214	-225.30725	-1364.99414	1200.51257	-303.36850	-1195.93713	1188.93079	-250.15611	
1255	5.225	-1229.64758	1237.02209	-446.17691	-1247.69714	1247.42932	-390.64041							-1262.63257	1242.66760	-337.88263	-1259.29675	1239.82312	-423.49582	-1293.28760	1240.63745	-397.96976	-1287.64099	1237.02002	-442.97693	-1281.63696	1214.26465	-458.33228							-1216.61499	1232.94971	-411.54889	-1203.07593	1234.07043	-377.29541	-1189.85120	1227.32874	-417.80710	-1189.67529	1192.26245	-437.67130							-1300.18201	1172.83411	-239.80269	-1359.93604	1195.38708	-317.14078	-1192.52759	1185.09692	-265.11023	
1256	5.229	-1225.69409	1233.51733	-460.97324	-1243.16504	1243.14490	-405.94968							-1258.28223	1239.05359	-352.90118	-1254.79272	1236.53125	-438.12775	-1286.23511	1244.34985	-409.14432	-1287.81189	1243.61658	-455.22937	-1287.97693	1217.24207	-467.86575							-1212.76050	1229.47559	-425.93945	-1202.30945	1238.22974	-388.79346	-1180.62439	1232.10413	-427.09915	-1176.80103	1194.06274	-440.75909							-1295.63196	1168.94238	-254.65459	-1355.35376	1191.85095	-330.58618	-1188.23767	1182.87964	-279.84171	
1257	5.233	-1221.47754	1229.65808	-475.85193	-1238.64526	1238.66040	-420.88577							-1254.02551	1235.70532	-368.14005	-1250.15454	1232.84924	-452.46417	-1276.75720	1246.97852	-420.50302	-1286.94836	1250.09082	-464.11563	-1295.58325	1223.86426	-474.08710							-1208.93323	1227.01257	-440.95462	-1202.87878	1242.69360	-402.16446	-1173.44409	1238.17957	-436.10638	-1164.17993	1198.03845	-439.57266							-1291.46802	1164.67529	-270.24365	-1351.38330	1190.58533	-344.30377	-1183.73596	1181.41931	-293.93170	
1258	5.238	-1217.16223	1225.78345	-490.47589	-1234.07886	1234.14905	-435.75729							-1249.98547	1232.19824	-383.09357	-1245.24353	1229.28625	-467.47174	-1265.32910	1248.16809	-432.19797	-1282.02661	1256.96667	-472.99539	-1302.49561	1232.35583	-475.53015							-1206.11877	1225.01721	-455.72858	-1204.92456	1245.65173	-419.14648	-1169.10706	1245.48120	-446.91217	-1153.65088	1206.62561	-438.52432							-1287.40808	1159.65527	-285.82858	-1348.07007	1190.13879	-359.28687	-1178.27539	1181.82727	-308.20432	
1259	5.242	-1212.98254	1222.11157	-504.92908	-1229.46350	1230.58154	-451.18314							-1245.87085	1227.87195	-397.92569	-1240.24097	1225.66150	-482.26520	-1253.96094	1246.33704	-444.56287	-1273.83618	1262.14197	-481.71942	-1301.20435	1246.07764	-474.11685							-1203.52405	1222.86218	-470.77841	-1207.44128	1245.58899	-437.23874	-1169.51440	1250.38086	-457.25385	-1146.34399	1221.65271	-436.57352							-1283.55273	1155.31079	-300.86322	-1345.07275	1189.75708	-375.99338	-1171.95679	1183.02722	-323.11594	
1260	5.246	-1208.10339	1219.45264	-519.67010	-1225.41162	1227.11719	-466.68353							-1241.95227	1224.24304	-412.68680	-1235.71277	1221.99829	-497.34064	-1243.47485	1244.90564	-458.34290	-1263.93359	1265.11438	-490.75638	-1292.98572	1259.83618	-476.37039							-1200.53723	1219.96338	-485.60590	-1210.24121	1243.75513	-454.19040	-1170.94385	1254.32471	-469.96268	-1144.67285	1240.69397	-439.79892							-1280.12573	1152.06079	-315.81778	-1342.09607	1189.15100	-393.94113	-1165.48450	1183.56946	-338.09744	
